<?xml version="1.0" encoding="UTF-8"?>
<!-- Generator: Adobe Illustrator 27.0.0, SVG Export Plug-In . SVG Version: 6.00 Build 0)  -->
<svg xmlns="http://www.w3.org/2000/svg" xmlns:xlink="http://www.w3.org/1999/xlink" version="1.1" id="Layer_1" x="0px" y="0px" viewBox="0 0 118 170" style="enable-background:new 0 0 118 170;" xml:space="preserve">
<style type="text/css">
	.st0{fill:#FFFFFF;}
	.st1{fill:#1C4583;}
</style>
<g id="_x23_ffffffff">
	<path id="XMLID_00000176755938677198942260000014425803865021623711_" class="st0" d="M-1.5-0.2h121v170.5h-121V-0.2 M0,1.2   c0,12.7,0,25.3,0,38c0,0.2,0,0.4,0,0.6c2.4,11.6,8.1,22.4,16.4,30.9c8.3,8.6,19.3,14.7,31.1,17c8.4,1.7,17.2,1.4,25.6-0.7   c10.9-2.7,20.9-8.6,28.6-16.7c8.4-8.8,14.2-20.1,16.3-32.1c0.1-0.5,0-0.9,0-1.4c0-11.8,0-23.7,0-35.5C78.6,1.2,39.3,1.2,0,1.2    M107.3,66.8c-7.5,9.6-17.8,17.1-29.5,20.9c-14.1,4.7-30,3.9-43.6-2.1C18.2,78.5,5.5,64.3,0,47.5c0,0.3,0,0.5,0,0.8   c0,40.1,0,80.3,0,120.5c39.3,0,78.6,0,118,0c0-24.5,0-48.9,0-73.4c0-16.2,0-32.5,0-48.7C115.7,53.9,112,60.8,107.3,66.8z"></path>
	<path id="XMLID_00000081630639062978556570000008404725081481090716_" class="st0" d="M18.6,19c1.8-1.3,4.2-1.5,6.2-1.1   c1.5,0.3,2.8,1.2,3.5,2.6c-0.7,0.4-1.4,0.7-2.1,1.1c-0.8-1.1-2.2-1.6-3.5-1.6c-0.9,0-1.8,0.2-2.4,0.8c-0.6,0.6-0.6,1.6,0.1,2.1   c0.9,0.6,2.1,0.6,3.2,0.8c1.6,0.2,3.3,0.6,4.4,1.9c1.3,1.7,1,4.5-0.7,5.9c-1.3,1-3,1.3-4.7,1.3c-1.5,0-3.1-0.3-4.3-1.3   c-0.7-0.6-1.3-1.4-1.6-2.2c0.7-0.4,1.5-0.8,2.2-1.2c0.5,1.2,1.6,1.9,2.9,2.1c1.2,0.2,2.6,0.2,3.6-0.5c0.8-0.5,1.1-1.8,0.4-2.5   c-0.6-0.7-1.6-0.9-2.5-1c-1.6-0.2-3.3-0.4-4.6-1.3C16.8,23.6,16.7,20.4,18.6,19z"></path>
	<path id="XMLID_00000017512543256632471470000008090605901231742881_" class="st0" d="M36.1,18.1c1.9-0.3,4-0.1,5.6,1   c1.6,1,2.7,2.8,3.1,4.7c0.4,2.2-0.1,4.7-1.5,6.5c-1,1.3-2.6,2.1-4.2,2.4c-1.9,0.3-3.9,0.1-5.5-0.9c-1.4-0.9-2.5-2.3-2.9-3.9   c-0.7-2.4-0.3-5.3,1.3-7.3C33,19.2,34.5,18.4,36.1,18.1 M36.4,20.5c-1.7,0.4-3,1.9-3.3,3.6c-0.3,1.7,0,3.7,1.3,5   c1.2,1.1,3,1.4,4.6,1c1.2-0.3,2.2-1.1,2.8-2.3c0.9-2,0.7-4.5-0.7-6.1C39.9,20.5,38,20.2,36.4,20.5z"></path>
	<path id="XMLID_00000055706714317017400260000002153740687609162372_" class="st0" d="M61.1,19.2c1.6-0.9,3.5-1.2,5.3-1   c1.2,0.1,2.4,0.6,3.2,1.5c1,1.2,0.9,3.1-0.2,4.3c-0.5,0.5-1.1,0.8-1.7,1c1.1,0.2,2.1,0.8,2.6,1.7c0.8,1.3,0.6,3.2-0.5,4.3   c-0.9,1-2.3,1.5-3.6,1.7c-1.9,0.2-3.8,0-5.5-0.9c0.2-0.8,0.5-1.7,0.7-2.5c1.3,0.6,2.7,1,4.1,0.8c0.7-0.1,1.5-0.5,1.7-1.2   c0.3-0.7-0.1-1.6-0.8-2c-1-0.6-2.3-0.5-3.4-0.5c0-0.8,0-1.6,0-2.4c1.1,0,2.2,0.1,3.2-0.5c0.5-0.3,0.8-1,0.6-1.6   c-0.2-0.6-0.8-0.9-1.4-0.9c-1.2-0.2-2.5,0.2-3.6,0.8C61.6,20.8,61.4,20,61.1,19.2z"></path>
	<path id="XMLID_00000116231408608122166650000007103487912295822235_" class="st0" d="M86.6,19.5c1.1-1,2.6-1.4,4-1.4   c1.3,0,2.7,0.4,3.7,1.4c0.9,0.9,1.2,2.4,0.6,3.6c-0.3,0.8-1,1.4-1.8,1.8c1.1,0.4,2.1,1.3,2.5,2.4c0.4,1.3,0.1,2.8-0.9,3.7   c-1,1.1-2.5,1.5-3.9,1.6c-1.6,0.1-3.3-0.1-4.6-1.1c-1-0.8-1.6-2-1.4-3.3c0.1-1.5,1.3-2.6,2.6-3.1c-0.7-0.4-1.4-1-1.8-1.8   C85.1,22.1,85.5,20.5,86.6,19.5 M89.7,20.5c-1.1,0.3-1.4,2-0.4,2.7c0.5,0.4,1.2,0.9,1.9,0.5c0.8-0.4,1.1-1.4,0.8-2.2   C91.6,20.5,90.5,20.2,89.7,20.5 M88.9,27c-0.7,0.6-0.8,1.7-0.3,2.5c0.7,1.2,2.6,1.2,3.4,0.2c0.5-0.7,0.4-1.8-0.2-2.4   c-0.5-0.5-1.1-0.7-1.7-0.9C89.7,26.5,89.2,26.7,88.9,27z"></path>
	<path id="XMLID_00000046303344684338796360000002757360415829894028_" class="st0" d="M11.7,18.2c0.9,0,1.8,0,2.7,0   c0,4.7,0,9.5,0,14.2c-0.9,0-1.8,0-2.7,0C11.7,27.7,11.7,23,11.7,18.2z"></path>
	<path id="XMLID_00000135662499448847975480000018154988947477019799_" class="st0" d="M52.9,18.5c0.2-0.1,0.4-0.2,0.6-0.2   c0.9,0,1.7,0,2.6,0c0,4.8,0,9.5,0,14.3c-1.1,0-2.2,0-3.2,0c0-3.8,0-7.5,0-11.3c-0.9,0.4-1.8,0.9-2.8,1.3c-0.2-0.8-0.4-1.7-0.6-2.5   C50.7,19.5,51.8,19,52.9,18.5z"></path>
	<path id="XMLID_00000160884167723686414200000005096080520828923027_" class="st0" d="M77.9,18.3c1.4,0,2.8,0,4.1,0   c0,2.8,0,5.6,0,8.3c0.6,0,1.1,0,1.7,0c0,0.8,0,1.7,0,2.5c-0.6,0-1.1,0-1.7,0c0,1.1,0,2.3,0,3.4c-1.1,0-2.1,0-3.2,0   c0-1.1,0-2.3,0-3.4c-2.1,0-4.2,0-6.3,0c0-0.7,0-1.5,0-2.2C74.3,24,76.2,21.2,77.9,18.3 M75.7,26.6c1.1,0,2.1,0,3.2,0   c0-1.9,0-3.9,0.1-5.8C78,22.8,76.9,24.7,75.7,26.6z"></path>
	<path id="XMLID_00000061437847724758728590000017303869432856931222_" class="st0" d="M99.2,18.3c2.6,0,5.2,0,7.9,0   c0,0.9,0,1.8,0,2.8c-1.8,0-3.7,0-5.5,0c-0.1,0.7-0.2,1.4-0.3,2.1c1.6-0.1,3.4,0.1,4.8,1.1c1.8,1.3,2.1,4,0.9,5.9   c-0.9,1.5-2.6,2.3-4.4,2.5c-1.7,0.2-3.5,0-5.1-0.7c0.2-0.8,0.4-1.7,0.6-2.5c1.1,0.5,2.4,0.8,3.7,0.7c0.8-0.1,1.7-0.4,2.2-1.2   c0.5-0.9,0.1-2.3-0.8-2.7c-1.5-0.7-3.2-0.6-4.9-0.4C98.6,23.2,98.9,20.7,99.2,18.3z"></path>
	<path id="XMLID_00000054236927142701252740000009799935710686818983_" class="st0" d="M50.8,48.1c3.7-2.1,8.2-2.7,12.3-1.7   c-2.9,1.4-5.6,3.3-7.8,5.8c-1.3,1.5-2.4,3.1-3.2,4.9c-0.9,0-1.8,0.5-2.2,1.3c-2.4-0.2-4.7-0.2-7.1-0.1C44,54.1,46.9,50.3,50.8,48.1   z"></path>
	<path id="XMLID_00000096025590428690829690000015561554707930055575_" class="st0" d="M54.1,58.2c2.3-5.1,6.9-8.8,12.1-10.6   c3.9,1.8,7,5.2,8.5,9.2c-1.6,1.9-3.3,3.6-5.2,5.2c-1-0.6-2.3-0.4-3.2,0.4c-3.8-1.6-7.8-2.7-11.8-3.4C54.3,58.7,54.2,58.4,54.1,58.2   z"></path>
	<path id="XMLID_00000148662114308481887160000008125459706393114500_" class="st0" d="M70.9,63.7c1.6-1.4,3.1-2.8,4.5-4.4   c0.5,2.7,0.4,5.5-0.3,8.1c-1.3-1-2.7-1.9-4.1-2.7C70.9,64.4,70.9,64,70.9,63.7z"></path>
	<path id="XMLID_00000031918839950901014010000004859474763299140779_" class="st0" d="M42.4,60.6c2.5-0.1,5-0.2,7.4,0   c0.3,0.3,0.5,0.6,0.8,0.9c-0.7,3-0.8,6-0.6,9.1c-0.6,0.4-1.1,1-1.3,1.8c-0.9,0.2-1.9,0.4-2.8,0.6C43.1,69.5,41.9,65,42.4,60.6z"></path>
	<path id="XMLID_00000097485163740258027310000007784396261260022930_" class="st0" d="M54,61.1c3.9,0.5,7.7,1.6,11.4,3.2   c0,0.3,0,0.5,0.1,0.8c-3.8,2.6-7.9,4.6-12.2,6.1c-0.3-0.3-0.6-0.5-1-0.7c-0.2-2.8-0.1-5.7,0.6-8.5C53.3,61.7,53.6,61.5,54,61.1z"></path>
	<path id="XMLID_00000156573430151587537920000012563135857918026681_" class="st0" d="M66.7,66.9c1,0.5,2.3,0.4,3.2-0.3   c1.5,0.9,3,1.9,4.4,3c-2.1,4.8-6.6,8.4-11.7,9.4c-2.9,0.6-6.1,0.5-8.9-0.6c-0.4-1.1-0.6-2.3-0.8-3.5c0.5-0.4,0.9-1,1-1.7   C58.4,71.7,62.8,69.6,66.7,66.9z"></path>
	<path id="XMLID_00000132769757886321426470000001343585358033878446_" class="st0" d="M47.6,74.9c0.5-0.1,1.1-0.2,1.6-0.4   c0.4,0.4,0.9,0.7,1.4,0.9c0.1,0.7,0.3,1.3,0.4,2C49.8,76.7,48.6,75.8,47.6,74.9z"></path>
	<path id="XMLID_00000057853669936743616100000003787684391540022699_" class="st0" d="M100.2,93.4c1.2-0.3,2.5,0.1,3.4,0.9   c1,0.9,1.5,2.3,1.2,3.6c-0.2,1.1-1,2.1-2,2.7c-1.1,0.6-2.4,0.6-3.5,0c-1.2-0.6-2.1-1.9-2.1-3.3C97.1,95.5,98.4,93.8,100.2,93.4z"></path>
	<path id="XMLID_00000067931816304316114070000017850921016014024375_" class="st0" d="M16.1,104.4c1.2-0.6,2.5-0.7,3.8-0.8   c3.5,0,7.1,0,10.6,0c0,1.7,0,3.4,0,5.1c-3.4,0-6.8,0-10.1,0c-0.8,0-1.6,0.1-2.2,0.7c-0.6,0.6-0.8,1.5-0.8,2.3c0,2.6,0,5.3,0,8   c0,0.8,0.1,1.6,0.6,2.2c0.5,0.6,1.4,0.8,2.2,0.8c3.4,0,6.9,0,10.3,0c0,1.7,0,3.4,0,5.1c-3.6,0-7.3,0-10.9,0c-1.9,0-3.9-0.6-5.3-2   c-1.4-1.4-2-3.4-2-5.3c0-2.9,0-5.9,0-8.8c0-1.4,0.1-2.8,0.7-4.1C13.5,106.3,14.7,105.1,16.1,104.4z"></path>
	<path id="XMLID_00000001643806800162323910000000626488079845809031_" class="st0" d="M36,104.4c1.6-0.7,3.4-0.8,5.1-0.8   c3.8,0,7.5,0,11.3,0c0,1.7,0,3.4,0,5.1c-3.9,0-7.8,0-11.8,0c-0.9,0-1.9,0.2-2.3,1c-0.4,1-0.2,2.2-0.3,3.3c4.8,0,9.6,0,14.4,0   c0,1.7,0,3.4,0,5.1c-4.8,0-9.6,0-14.4,0c0.1,1.2-0.2,2.4,0.3,3.6c0.4,0.8,1.4,1,2.2,1c4,0,7.9,0,11.9,0c0,1.7,0,3.4,0,5.1   c-4.1,0-8.3,0-12.4,0c-1.8-0.1-3.8-0.3-5.2-1.6c-1.4-1.3-1.8-3.3-1.9-5.1c0-3,0-6,0-9c0-1.9,0-3.8,0.9-5.5   C34.1,105.6,35,104.8,36,104.4z"></path>
	<path id="XMLID_00000170241184360843179700000001820996320053402552_" class="st0" d="M55.1,103.7c4.6,0,9.1,0,13.7,0   c1.9,0.1,3.9,0.3,5.4,1.4c1.2,0.9,1.7,2.5,1.7,3.9c0,1.6,0.2,3.3-0.6,4.8c-0.5,1.1-1.5,1.8-2.6,2.1c1.4,0.6,2.2,2,2.5,3.4   c0.6,2.8,1.2,5.6,1.8,8.5c-1.8,0-3.6,0-5.4,0c-0.5-2.4-0.8-4.7-1.3-7.1c-0.3-1.1-1-2.3-2.2-2.4c-1.8,0-3.6,0-5.4,0   c0-1.6,0-3.2,0-4.9c1.9,0,3.8,0,5.8,0c0.8,0,1.8-0.3,2.1-1.2c0.2-0.6,0.1-1.2,0.1-1.8c0-0.5-0.2-0.9-0.5-1.2   c-0.6-0.5-1.3-0.5-2-0.5c-2.6,0-5.3,0-7.9,0c0,6.4,0,12.8,0,19.2c-1.7,0-3.4,0-5.2,0C55.1,119.8,55.1,111.7,55.1,103.7z"></path>
	<path id="XMLID_00000098933002984877513600000017914754450213010595_" class="st0" d="M76.9,103.7c6.6,0,13.2,0,19.8,0   c0,1.7,0,3.4,0,5.1c-2.4,0-4.9,0-7.3,0c0,6.4,0,12.8,0,19.2c-1.7,0-3.5,0-5.2,0c0-6.4,0-12.8,0-19.2c-2.5,0-4.9,0-7.4,0   C76.9,107,76.9,105.3,76.9,103.7z"></path>
	<path id="XMLID_00000119837042951253079850000013724241158837727895_" class="st0" d="M98.6,103.6c1.7,0,3.4,0,5.1,0   c0,8.1,0,16.2,0,24.2c-1.7,0-3.4,0-5.1,0c-0.1-5.9,0-11.8,0-17.7C98.6,108,98.5,105.8,98.6,103.6z"></path>
	<path id="XMLID_00000033369720938913690040000012454030359003080079_" class="st0" d="M10.7,135c5.7,0,11.4,0,17.1,0   c0,1.4,0,2.9,0,4.3c-2.1,0.1-4.2,0-6.3,0c0,5.5,0,11,0,16.5c-1.5,0-3,0-4.5,0c0-5.5,0-11,0-16.5c-2.1,0-4.2,0-6.3,0   C10.7,137.9,10.7,136.5,10.7,135z"></path>
	<path id="XMLID_00000112623491008143270600000007143322116547753865_" class="st0" d="M29.3,135c3.9,0,7.8,0,11.8,0   c1.6,0,3.3,0.2,4.6,1.2c1,0.8,1.5,2.1,1.5,3.3c0,1.6,0.2,3.2-0.7,4.6c-0.4,0.7-1.2,1.2-2,1.5c1.2,0.5,1.9,1.7,2.1,2.9   c0.5,2.4,1,4.9,1.6,7.3c-1.6,0-3.1,0-4.7,0c-0.4-2-0.7-4-1.1-6c-0.2-1-0.9-2.1-2-2.2c-1.5,0-3,0-4.5,0c-0.1-1.4,0-2.8,0-4.2   c1.7,0,3.4,0,5,0c0.7,0,1.7-0.3,1.8-1.2c0.1-0.6,0.1-1.3,0-1.9c-0.3-0.8-1.2-1-1.9-1c-2.3,0-4.6,0-7,0c0,5.5,0,11,0,16.5   c-1.5,0-3,0-4.5,0C29.3,148.9,29.3,142,29.3,135z"></path>
	<path id="XMLID_00000023992316652660459410000012512733166054069928_" class="st0" d="M49.8,135c1.5,0,3,0,4.5,0   c0,4.8,0,9.6,0,14.4c0,0.6,0.1,1.3,0.6,1.8c0.5,0.5,1.3,0.6,2,0.7c1.6,0,3.1,0,4.7,0c0.7,0,1.5-0.1,2-0.6c0.5-0.5,0.7-1.2,0.7-1.9   c0-4.8,0-9.6,0-14.4c1.5,0,3,0,4.5,0c0,4.2,0,8.4,0,12.6c0,1.4,0.1,2.7-0.2,4.1c-0.3,1.4-1.1,2.6-2.2,3.4c-1.2,0.8-2.7,1.1-4.1,1.1   c-2,0-4,0-6,0c-1.7,0-3.5-0.5-4.7-1.8c-1.2-1.2-1.7-3-1.7-4.7C49.8,144.9,49.8,140,49.8,135z"></path>
	<path id="XMLID_00000026881553695702748020000013360518299084758415_" class="st0" d="M71.6,137.8c1.2-1.9,3.4-2.7,5.5-2.7   c3.7,0,7.4,0,11.1,0c0,1.4,0,2.9,0,4.3c-3.7,0.1-7.3,0-11,0c-0.6,0-1.3,0.1-1.8,0.7c-0.5,0.6-0.5,1.5-0.1,2.2   c0.4,0.7,1.2,0.9,1.9,0.9c1.7,0,3.5,0,5.2,0c1.8,0,3.7,0.6,5,1.9c1.1,1.1,1.6,2.7,1.7,4.3c0,1.4-0.2,2.8-1,3.9   c-0.8,1.2-2.2,2-3.6,2.4c-1,0.3-2.1,0.3-3.1,0.3c-3.5,0-6.9,0-10.4,0c0-1.5,0-2.9,0-4.4c3.7,0,7.4,0,11.1,0c0.7,0,1.4-0.1,2-0.6   c0.6-0.5,0.7-1.5,0.4-2.2c-0.3-0.8-1.3-1.1-2.1-1.1c-1.8,0-3.6,0-5.3,0c-1.6,0-3.3-0.5-4.6-1.6c-1-0.9-1.7-2.2-1.8-3.6   C70.6,140.8,70.7,139.1,71.6,137.8z"></path>
	<path id="XMLID_00000183961725450665414330000003383911700748845444_" class="st0" d="M90,135c5.7,0,11.4,0,17.1,0   c0,1.5,0,2.9,0,4.4c-2.1,0-4.2,0-6.3,0c0,5.5,0,11,0,16.5c-1.5,0-3,0-4.5,0c0-5.5,0-11,0-16.5c-2.1,0-4.2,0-6.3,0   C90,137.9,90,136.5,90,135z"></path>
</g>
<g id="_x23_1c4583ff">
	<path id="XMLID_00000052824819250430614710000000119397823270893714_" class="st1" d="M0,1.2c39.3,0,78.6,0,118,0   c0,11.8,0,23.7,0,35.5c0,0.5,0,0.9,0,1.4c-2.1,12-7.9,23.3-16.3,32.1c-7.7,8.1-17.7,14-28.6,16.7c-8.3,2.1-17.1,2.3-25.6,0.7   c-11.8-2.3-22.7-8.4-31.1-17C8.2,62.2,2.4,51.3,0,39.8c0-0.2,0-0.4,0-0.6C0,26.6,0,13.9,0,1.2 M18.6,19c-1.8,1.4-1.8,4.6,0.1,5.9   c1.3,0.9,3,1.1,4.6,1.3c0.9,0.1,1.8,0.3,2.5,1c0.7,0.7,0.4,2-0.4,2.5c-1.1,0.7-2.4,0.7-3.6,0.5c-1.2-0.2-2.4-1-2.9-2.1   c-0.7,0.4-1.5,0.8-2.2,1.2c0.4,0.8,0.9,1.7,1.6,2.2c1.2,1,2.8,1.3,4.3,1.3c1.6,0,3.3-0.3,4.7-1.3c1.8-1.3,2.1-4.1,0.7-5.9   c-1.1-1.3-2.8-1.6-4.4-1.9c-1.1-0.2-2.3-0.2-3.2-0.8c-0.7-0.5-0.7-1.5-0.1-2.1c0.6-0.6,1.6-0.8,2.4-0.8c1.3,0,2.7,0.5,3.5,1.6   c0.7-0.4,1.4-0.7,2.1-1.1c-0.7-1.4-2-2.3-3.5-2.6C22.7,17.5,20.3,17.7,18.6,19 M36.1,18.1c-1.6,0.3-3.2,1.1-4.2,2.5   c-1.6,2-2,4.8-1.3,7.3c0.5,1.6,1.5,3.1,2.9,3.9c1.6,1,3.7,1.2,5.5,0.9c1.6-0.3,3.2-1.1,4.2-2.4c1.4-1.8,1.9-4.3,1.5-6.5   c-0.3-1.9-1.4-3.7-3.1-4.7C40.1,18,38,17.8,36.1,18.1 M61.1,19.2c0.2,0.8,0.5,1.6,0.7,2.4c1.1-0.6,2.3-1,3.6-0.8   c0.6,0.1,1.2,0.4,1.4,0.9c0.3,0.6,0,1.3-0.6,1.6c-1,0.6-2.1,0.5-3.2,0.5c0,0.8,0,1.6,0,2.4c1.2,0,2.4-0.1,3.4,0.5   c0.7,0.4,1,1.3,0.8,2c-0.2,0.7-1,1.1-1.7,1.2c-1.4,0.2-2.9-0.2-4.1-0.8c-0.2,0.8-0.5,1.7-0.7,2.5c1.7,0.9,3.6,1.1,5.5,0.9   c1.3-0.2,2.7-0.7,3.6-1.7c1.1-1.1,1.3-3,0.5-4.3c-0.6-0.9-1.6-1.5-2.6-1.7c0.6-0.2,1.2-0.6,1.7-1c1.1-1.1,1.2-3.1,0.2-4.3   c-0.8-0.9-2-1.4-3.2-1.5C64.6,18,62.7,18.3,61.1,19.2 M86.6,19.5c-1.1,1-1.5,2.7-0.8,4c0.4,0.8,1,1.4,1.8,1.8   c-1.3,0.5-2.5,1.6-2.6,3.1c-0.2,1.3,0.4,2.5,1.4,3.3c1.3,1,3,1.2,4.6,1.1c1.4-0.1,2.9-0.6,3.9-1.6c0.9-1,1.2-2.5,0.9-3.7   c-0.4-1.2-1.4-2-2.5-2.4c0.8-0.4,1.4-1,1.8-1.8c0.5-1.2,0.3-2.7-0.6-3.6c-0.9-1-2.4-1.4-3.7-1.4C89.1,18.1,87.6,18.5,86.6,19.5    M11.7,18.2c0,4.7,0,9.5,0,14.2c0.9,0,1.8,0,2.7,0c0-4.7,0-9.5,0-14.2C13.5,18.2,12.6,18.2,11.7,18.2 M52.9,18.5   c-1.1,0.5-2.2,1-3.4,1.6c0.2,0.8,0.4,1.7,0.6,2.5c0.9-0.4,1.8-0.9,2.8-1.3c0,3.8,0,7.5,0,11.3c1.1,0,2.2,0,3.2,0   c0-4.8,0-9.5,0-14.3c-0.9,0-1.7,0-2.6,0C53.3,18.3,53.1,18.4,52.9,18.5 M77.9,18.3c-1.8,2.9-3.6,5.8-5.3,8.6c-0.1,0.7,0,1.5,0,2.2   c2.1,0,4.2,0,6.3,0c0,1.1,0,2.3,0,3.4c1.1,0,2.1,0,3.2,0c0-1.1,0-2.3,0-3.4c0.6,0,1.1,0,1.7,0c0-0.8,0-1.7,0-2.5   c-0.6,0-1.1,0-1.7,0c0-2.8,0-5.6,0-8.3C80.7,18.3,79.3,18.3,77.9,18.3 M99.2,18.3c-0.3,2.5-0.6,5-0.9,7.5c1.6-0.1,3.4-0.3,4.9,0.4   c1,0.5,1.4,1.8,0.8,2.7c-0.4,0.8-1.3,1.1-2.2,1.2c-1.3,0.1-2.5-0.2-3.7-0.7c-0.2,0.8-0.4,1.7-0.6,2.5c1.6,0.7,3.4,0.9,5.1,0.7   c1.7-0.2,3.4-1,4.4-2.5c1.1-1.8,0.9-4.6-0.9-5.9c-1.4-1-3.1-1.2-4.8-1.1c0.1-0.7,0.2-1.4,0.3-2.1c1.8,0,3.7,0,5.5,0   c0-0.9,0-1.8,0-2.8C104.5,18.2,101.8,18.3,99.2,18.3 M50.8,48.1c-3.9,2.2-6.8,6-7.9,10.3c2.4-0.1,4.7-0.1,7.1,0.1   c0.4-0.8,1.3-1.3,2.2-1.3c0.8-1.8,1.9-3.4,3.2-4.9c2.1-2.5,4.8-4.4,7.8-5.8C59,45.4,54.4,46,50.8,48.1 M54.1,58.2   c0.1,0.2,0.2,0.5,0.4,0.7c4.1,0.6,8.1,1.8,11.8,3.4c0.9-0.7,2.2-0.9,3.2-0.4c1.9-1.6,3.6-3.3,5.2-5.2c-1.5-4-4.6-7.4-8.5-9.2   C61,49.3,56.4,53.1,54.1,58.2 M70.9,63.7c0,0.3,0.1,0.6,0.1,0.9c1.4,0.8,2.8,1.7,4.1,2.7c0.8-2.6,0.9-5.4,0.3-8.1   C74,60.9,72.5,62.4,70.9,63.7 M42.4,60.6c-0.6,4.3,0.7,8.9,3.4,12.3c0.9-0.2,1.9-0.3,2.8-0.6c0.2-0.7,0.6-1.4,1.3-1.8   c-0.2-3-0.1-6.1,0.6-9.1c-0.3-0.3-0.5-0.6-0.8-0.9C47.4,60.5,44.9,60.5,42.4,60.6 M54,61.1c-0.3,0.3-0.7,0.6-1.1,0.8   c-0.7,2.8-0.8,5.7-0.6,8.5c0.4,0.2,0.7,0.4,1,0.7c4.3-1.4,8.4-3.5,12.2-6.1c0-0.3,0-0.5-0.1-0.8C61.7,62.8,57.9,61.7,54,61.1    M66.7,66.9c-4,2.7-8.3,4.9-12.9,6.4c-0.1,0.7-0.5,1.3-1,1.7c0.2,1.2,0.5,2.4,0.8,3.5c2.8,1,6,1.2,8.9,0.6   c5.1-1.1,9.6-4.7,11.7-9.4c-1.4-1.1-2.8-2.1-4.4-3C69,67.3,67.8,67.4,66.7,66.9 M47.6,74.9c1,1,2.2,1.8,3.4,2.5   c-0.1-0.7-0.3-1.3-0.4-2c-0.5-0.2-1-0.5-1.4-0.9C48.7,74.6,48.1,74.8,47.6,74.9z"></path>
	<path id="XMLID_00000012444585278993347040000015969583834647938700_" class="st1" d="M36.4,20.5c1.6-0.3,3.4,0,4.6,1.2   c1.5,1.6,1.6,4.2,0.7,6.1c-0.5,1.1-1.5,2-2.8,2.3c-1.6,0.4-3.4,0.1-4.6-1c-1.3-1.3-1.7-3.3-1.3-5C33.4,22.4,34.7,20.9,36.4,20.5z"></path>
	<path id="XMLID_00000033352734837429736070000007895409777219149229_" class="st1" d="M89.7,20.5c0.8-0.3,2,0,2.2,0.9   c0.3,0.8,0,1.8-0.8,2.2c-0.6,0.5-1.3-0.1-1.9-0.5C88.3,22.5,88.5,20.8,89.7,20.5z"></path>
	<path id="XMLID_00000067199882328919641940000009887280785567348155_" class="st1" d="M75.7,26.6c1.2-1.9,2.3-3.8,3.3-5.8   c-0.1,1.9-0.1,3.9-0.1,5.8C77.8,26.6,76.8,26.6,75.7,26.6z"></path>
	<path id="XMLID_00000081640337103642574090000005351275660959368639_" class="st1" d="M88.9,27c0.3-0.3,0.7-0.5,1.2-0.7   c0.6,0.2,1.3,0.4,1.7,0.9c0.6,0.6,0.8,1.7,0.2,2.4c-0.8,1.1-2.7,1-3.4-0.2C88.1,28.7,88.3,27.6,88.9,27z"></path>
	<path id="XMLID_00000168804083104631678260000000335830427820757909_" class="st1" d="M107.3,66.8c4.7-6,8.4-12.9,10.6-20.2   c0,16.2,0,32.5,0,48.7c0,24.5,0,48.9,0,73.4c-39.3,0-78.6,0-118,0c0-40.2,0-80.3,0-120.5c0-0.3,0-0.5,0-0.8   c5.4,16.7,18.2,31,34.3,38.1c13.6,6.1,29.4,6.8,43.6,2.1C89.5,83.9,99.8,76.5,107.3,66.8 M100.2,93.4c-1.8,0.4-3.2,2.1-3,3.9   c0,1.4,0.9,2.7,2.1,3.3c1.1,0.6,2.4,0.6,3.5,0c1-0.5,1.8-1.5,2-2.7c0.3-1.3-0.2-2.7-1.2-3.6C102.8,93.5,101.4,93.1,100.2,93.4    M16.1,104.4c-1.4,0.7-2.6,1.9-3.2,3.3c-0.6,1.3-0.7,2.7-0.7,4.1c0,2.9,0,5.9,0,8.8c0,1.9,0.6,3.9,2,5.3c1.4,1.4,3.4,2,5.3,2   c3.6,0,7.3,0,10.9,0c0-1.7,0-3.4,0-5.1c-3.4,0-6.9,0-10.3,0c-0.8,0-1.6-0.2-2.2-0.8c-0.5-0.6-0.6-1.4-0.6-2.2c0-2.6,0-5.3,0-8   c0-0.8,0.1-1.7,0.8-2.3c0.6-0.6,1.4-0.7,2.2-0.7c3.4,0,6.8,0,10.1,0c0-1.7,0-3.4,0-5.1c-3.5,0-7.1,0-10.6,0   C18.6,103.7,17.3,103.8,16.1,104.4 M36,104.4c-1,0.4-1.8,1.2-2.3,2.2c-0.8,1.7-0.9,3.6-0.9,5.5c0,3,0,6,0,9   c0.1,1.8,0.5,3.8,1.9,5.1c1.4,1.3,3.4,1.5,5.2,1.6c4.1,0,8.3,0,12.4,0c0-1.7,0-3.4,0-5.1c-4,0-7.9,0-11.9,0c-0.8,0-1.8-0.2-2.2-1   c-0.5-1.1-0.2-2.4-0.3-3.6c4.8,0,9.6,0,14.4,0c0-1.7,0-3.4,0-5.1c-4.8,0-9.6,0-14.4,0c0.1-1.1-0.1-2.2,0.3-3.3c0.4-0.9,1.5-1,2.3-1   c3.9,0,7.8,0,11.8,0c0-1.7,0-3.4,0-5.1c-3.8,0-7.5,0-11.3,0C39.3,103.6,37.6,103.7,36,104.4 M55.1,103.7c0,8.1,0,16.2,0,24.2   c1.7,0,3.4,0,5.2,0c0-6.4,0-12.8,0-19.2c2.6,0,5.3,0,7.9,0c0.7,0,1.5,0.1,2,0.5c0.4,0.3,0.5,0.8,0.5,1.2c0,0.6,0.1,1.2-0.1,1.8   c-0.3,0.9-1.3,1.1-2.1,1.2c-1.9,0-3.8,0-5.8,0c0,1.6,0,3.2,0,4.9c1.8,0,3.6,0,5.4,0c1.2,0.1,2,1.3,2.2,2.4c0.5,2.4,0.9,4.7,1.3,7.1   c1.8,0,3.6,0,5.4,0c-0.6-2.8-1.2-5.6-1.8-8.5c-0.3-1.4-1.1-2.8-2.5-3.4c1.1-0.3,2.1-1.1,2.6-2.1c0.7-1.5,0.6-3.2,0.6-4.8   c0-1.5-0.5-3-1.7-3.9c-1.5-1.2-3.6-1.4-5.4-1.4C64.3,103.6,59.7,103.7,55.1,103.7 M76.9,103.7c0,1.7,0,3.4,0,5.1c2.5,0,4.9,0,7.4,0   c0,6.4,0,12.8,0,19.2c1.7,0,3.5,0,5.2,0c0-6.4,0-12.8,0-19.2c2.4,0,4.9,0,7.3,0c0-1.7,0-3.4,0-5.1   C90.1,103.7,83.5,103.6,76.9,103.7 M98.6,103.6c-0.1,2.2,0,4.3,0,6.5c0,5.9,0,11.8,0,17.7c1.7,0,3.4,0,5.1,0c0-8.1,0-16.2,0-24.2   C102,103.6,100.3,103.7,98.6,103.6 M10.7,135c0,1.4,0,2.9,0,4.3c2.1,0.1,4.2,0,6.3,0c0,5.5,0,11,0,16.5c1.5,0,3,0,4.5,0   c0-5.5,0-11,0-16.5c2.1,0,4.2,0,6.3,0c0-1.4,0-2.9,0-4.3C22.1,135,16.4,135,10.7,135 M29.3,135c0,6.9,0,13.9,0,20.8   c1.5,0,3,0,4.5,0c0-5.5,0-11,0-16.5c2.3,0,4.6,0,7,0c0.7,0,1.6,0.2,1.9,1c0.1,0.6,0.1,1.3,0,1.9c-0.1,0.8-1.1,1.2-1.8,1.2   c-1.7,0-3.4,0-5,0c0,1.4-0.1,2.8,0,4.2c1.5,0,3,0,4.5,0c1.1,0,1.8,1.2,2,2.2c0.4,2,0.7,4,1.1,6c1.6,0,3.1,0,4.7,0   c-0.5-2.4-1-4.9-1.6-7.3c-0.3-1.2-1-2.4-2.1-2.9c0.8-0.3,1.6-0.8,2-1.5c0.9-1.4,0.7-3.1,0.7-4.6c0-1.3-0.4-2.6-1.5-3.3   c-1.3-1-3-1.1-4.6-1.2C37.1,135,33.2,135,29.3,135 M49.8,135c0,4.9,0,9.8,0,14.7c0,1.7,0.5,3.5,1.7,4.7c1.2,1.3,3,1.8,4.7,1.8   c2,0,4,0,6,0c1.4,0,2.9-0.3,4.1-1.1c1.2-0.8,1.9-2.1,2.2-3.4c0.3-1.3,0.2-2.7,0.2-4.1c0-4.2,0-8.4,0-12.6c-1.5,0-3,0-4.5,0   c0,4.8,0,9.6,0,14.4c0,0.7-0.2,1.4-0.7,1.9c-0.5,0.5-1.3,0.6-2,0.6c-1.6,0-3.1,0-4.7,0c-0.7,0-1.5-0.1-2-0.7   c-0.5-0.5-0.6-1.2-0.6-1.8c0-4.8,0-9.6,0-14.4C52.7,135,51.3,135,49.8,135 M71.6,137.8c-0.9,1.3-1,3-0.9,4.5   c0.2,1.4,0.8,2.7,1.8,3.6c1.2,1.1,2.9,1.6,4.6,1.6c1.8,0,3.6,0,5.3,0c0.8,0,1.8,0.3,2.1,1.1c0.3,0.7,0.2,1.7-0.4,2.2   c-0.5,0.5-1.3,0.5-2,0.6c-3.7,0-7.4,0-11.1,0c0,1.5,0,2.9,0,4.4c3.5,0,6.9,0,10.4,0c1,0,2.1,0,3.1-0.3c1.4-0.4,2.8-1.2,3.6-2.4   c0.8-1.1,1-2.5,1-3.9c0-1.6-0.5-3.2-1.7-4.3c-1.3-1.3-3.2-1.9-5-1.9c-1.7,0-3.5,0-5.2,0c-0.7,0-1.5-0.2-1.9-0.9   c-0.3-0.7-0.3-1.6,0.1-2.2c0.4-0.5,1.1-0.7,1.8-0.7c3.7,0,7.3,0,11,0c0-1.4,0-2.9,0-4.3c-3.7,0-7.4,0-11.1,0   C75,135,72.7,135.9,71.6,137.8 M90,135c0,1.5,0,2.9,0,4.4c2.1,0,4.2,0,6.3,0c0,5.5,0,11,0,16.5c1.5,0,3,0,4.5,0c0-5.5,0-11,0-16.5   c2.1,0,4.2,0,6.3,0c0-1.5,0-2.9,0-4.4C101.4,135,95.7,135,90,135z"></path>
</g>
</svg>
